<svg width="21" height="15" viewBox="0 0 21 15" fill="none" xmlns="http://www.w3.org/2000/svg">
<path fill-rule="evenodd" clip-rule="evenodd" d="M20 0.318181L10.4996 8L1 0.318181C1.38828 0.120952 1.82743 0 2.30159 0H18.6975C19.1711 0 19.6101 0.120952 20 0.318181ZM20.6615 14C20.8699 13.629 21 13.2073 21 12.7524V2.37781C21 1.86999 20.8456 1.40006 20.5893 1L14 6.66982L20.6615 14ZM13.1105 7.00009L10.9431 8.86896C10.8163 8.97772 10.6585 9.03203 10.5 9.03203C10.3415 9.03203 10.1836 8.97772 10.0569 8.86896L7.88899 7L1 14.592C1.41292 14.8472 1.89685 15 2.42021 15H18.5798C19.1031 15 19.5872 14.8472 20 14.592L13.1105 7.00009ZM0 2.37785C0 1.86999 0.154549 1.40005 0.410854 1L7 6.66859L0.338711 14C0.129501 13.629 0 13.2073 0 12.7524V2.37785Z" fill="white"/>
</svg>
