<svg width="66" height="66" fill="none" xmlns="http://www.w3.org/2000/svg"><path fill-rule="evenodd" clip-rule="evenodd" d="M56.1 31.9A1.1 1.1 0 0155 33h-2.2v2.339a4.383 4.383 0 01.999 8.104l8.256 8.257H64.9a1.1 1.1 0 011.1 1.1v9.9a1.1 1.1 0 01-1.1 1.1H38.5a1.1 1.1 0 01-1.1-1.1v-9.9a1.1 1.1 0 011.1-1.1h2.845l8.256-8.257A4.386 4.386 0 0147.3 39.6v-1.1h2.2v1.1a2.2 2.2 0 102.2-2.2 1.1 1.1 0 01-1.1-1.1V33h-2.2a1.1 1.1 0 01-1.1-1.1V16.5h-22v20.445l4.078 4.077a1.1 1.1 0 01.322.778v17.6h2.2V66h-22v-6.6h2.2V41.8a1.1 1.1 0 01.322-.778l4.078-4.077V16.5H1.1A1.1 1.1 0 010 15.4V11c0-.006.002-.012.004-.018a.06.06 0 00.004-.02c.003-.13.029-.258.077-.379v-.013c.053-.12.128-.23.22-.323.032-.03.067-.058.103-.084.047-.046.098-.087.152-.123l17.6-9.9a.236.236 0 01.039-.016l.036-.014a.905.905 0 01.078-.031l.008-.003C18.44.03 18.57.003 18.7 0h4.4c.084 0 .169.008.25.026l41.8 9.9c.02.005.035.013.052.022a.28.28 0 00.039.018c.06.02.118.046.173.077.187.1.34.253.44.44.03.052.054.106.075.162.024.076.04.154.047.234.01.04.018.08.024.121v4.4a1.1 1.1 0 01-1.1 1.1h-8.8v15.4zm7.7-19.8h-7.7v2.2h7.7v-2.2zm0 41.8v7.7H39.6v-7.7h24.2zm-12.1-9.444L44.455 51.7h14.49L51.7 44.456zM53.9 26.4h-4.4v-9.9h4.4v9.9zm-4.4-12.1h4.4v-2.2h-4.4v2.2zM19.8 2.2H22v7.7h-2.2V2.2zm3.3 9.9h-4.4v2.2h3.945l.455-.455V12.1zm0 12.745L19.155 20.9l3.945-3.945v7.89zM20.445 16.5H18.7v1.745l1.745-1.745zM18.7 23.556l3.945 3.944-3.945 3.945v-7.89zM23.1 37.4v-7.244L19.155 34.1l3.945 3.945V37.4zm-4.4 0v-.645l3.945 3.945-3.945 3.945V37.4zm4.4 13.845v-7.89L19.155 47.3l3.945 3.945zm-4.4-1.29l3.945 3.945-3.945 3.945v-7.89zm4.4 9.445v-2.844L20.255 59.4H23.1zM17.6 2.981v6.92H5.299L17.6 2.98zM2.2 12.1v2.2h14.3v-2.2H2.2zm12.1 30.156l2.2-2.2V59.4h-2.2V42.256zM29.7 63.8v-2.2H12.1v2.2h17.6zm-2.2-21.544V59.4h-2.2V40.056l2.2 2.2zM25.3 14.3h22v-2.2h-22v2.2zm-1.1-4.4V2.49L55.483 9.9H24.2zm25.3 18.7v2.2h4.4v-2.2h-4.4z" fill="#86ADEF"/></svg>