<svg width="66" height="66" fill="none" xmlns="http://www.w3.org/2000/svg"><g fill-rule="evenodd" clip-rule="evenodd" fill="#86ADEF"><path d="M31.722 6.703c.943-.938 2.616-.935 3.553-.003l24.99 25.004c.468.472.735 1.12.735 1.78 0 .66-.267 1.307-.733 1.776l-24.99 25.004A2.539 2.539 0 0133.5 61a2.53 2.53 0 01-1.775-.734L6.735 35.262A2.541 2.541 0 016 33.483c0-.66.267-1.307.733-1.776l24.99-25.004zM8.847 33.483L33.5 58.152l24.653-24.669L33.5 8.815 8.847 33.483z"/><path d="M22.118 20.969a1.425 1.425 0 01.104-1.332A1.368 1.368 0 0123.375 19h13.75c.508 0 .974.284 1.213.74a1.423 1.423 0 01-.069 1.437l-1.943 2.966 2.163 1.469C41.94 27.957 44 31.875 44 36.095V45.6c0 .774-.615 1.4-1.375 1.4h-5.5c-.76 0-1.375-.626-1.375-1.4v-9.505a4.217 4.217 0 00-1.837-3.494l-2.163-1.468-1.73 2.644a1.36 1.36 0 01-1.262.618c-.5-.043-.936-.36-1.14-.826l-5.5-12.6zm11.157 2.786l1.28-1.955h-9.063l3.625 8.307 1.108-1.692c.203-.31.517-.524.874-.597.36-.074.73.002 1.033.208l3.307 2.245a7.023 7.023 0 013.061 5.824V44.2h2.75v-8.105c0-3.282-1.602-6.33-4.286-8.154l-3.307-2.244a1.42 1.42 0 01-.381-1.941z"/><path d="M38.666 2.347l24.987 24.986A8.069 8.069 0 0166 33c0 2.11-.855 4.175-2.347 5.667L38.667 63.653A8.069 8.069 0 0133 66a8.069 8.069 0 01-5.667-2.347L2.347 38.667A8.069 8.069 0 010 33c0-2.11.855-4.175 2.347-5.666L27.333 2.347A8.109 8.109 0 0133.002 0c2.086 0 4.173.856 5.664 2.347zm-1.944 59.361l24.986-24.986A5.299 5.299 0 0063.25 33a5.3 5.3 0 00-1.541-3.722L36.722 4.292A5.3 5.3 0 0033 2.75a5.3 5.3 0 00-3.722 1.542L4.29 29.278A5.3 5.3 0 002.75 33a5.3 5.3 0 001.542 3.722l24.986 24.986c1.96 1.96 5.484 1.96 7.444 0z"/></g></svg>