<svg width="62" height="70" fill="none" xmlns="http://www.w3.org/2000/svg"><path fill-rule="evenodd" clip-rule="evenodd" d="M61.111 33.21l-2.768-1.198v-1.904c.039-11.691-7.291-22.122-18.257-25.98V1.444A1.44 1.44 0 0038.652 0H23.305a1.44 1.44 0 00-1.433 1.444v2.698C10.905 8 3.576 18.431 3.614 30.122v1.92L.874 33.21c-.53.226-.874.75-.874 1.328v7.578a1.44 1.44 0 001.434 1.443H3.3v2.887a1.44 1.44 0 001.434 1.443h5.149a21.913 21.913 0 002.136 5.167l-3.642 3.666a1.449 1.449 0 000 2.035l6.095 6.134c.56.56 1.463.56 2.022 0l3.643-3.666a21.592 21.592 0 005.12 2.15v5.182A1.44 1.44 0 0026.69 70h8.605a1.44 1.44 0 001.435-1.443v-5.182a21.569 21.569 0 005.134-2.15l3.643 3.666c.56.56 1.463.56 2.022 0l6.095-6.134a1.449 1.449 0 000-2.035l-3.643-3.666a21.913 21.913 0 002.138-5.167h5.148a1.44 1.44 0 001.434-1.443v-2.887h1.865A1.44 1.44 0 0062 42.116v-7.578a1.443 1.443 0 00-.889-1.328zm-36.4-30.309h12.506v24.117H24.74l-.03-24.117zm26.36 42.101h4.776l-.014-1.443H42.71c-.654 5.432-4.909 9.713-10.307 10.373-6.48.792-12.37-3.852-13.156-10.373H6.139v1.443h4.775a1.436 1.436 0 011.435 1.14 19.054 19.054 0 002.667 6.322 1.45 1.45 0 01-.187 1.804l-3.427 3.45 4.058 4.084 3.428-3.45a1.428 1.428 0 011.793-.187 18.737 18.737 0 006.31 2.641 1.44 1.44 0 011.133 1.443v4.907h5.737v-4.863a1.442 1.442 0 011.133-1.444 18.796 18.796 0 006.31-2.64 1.427 1.427 0 011.793.187l3.428 3.45 4.102-4.1-3.428-3.45a1.45 1.45 0 01-.186-1.803 19.036 19.036 0 002.624-6.351 1.436 1.436 0 011.435-1.14zM22.174 43.56h17.655c-.79 4.91-5.385 8.247-10.263 7.453-3.807-.62-6.791-3.623-7.407-7.453h.014zm-19.32-2.888h56.292V35.52l-2.768-1.199a1.44 1.44 0 01-.875-1.327v-2.887c.04-10.093-6.065-19.183-15.389-22.905v21.26a1.44 1.44 0 01-1.434 1.443H23.305a1.439 1.439 0 01-1.433-1.443V7.202C12.563 10.926 6.465 19.998 6.497 30.078v2.887a1.44 1.44 0 01-.875 1.328L2.854 35.49v5.181z" fill="#86ADEF"/></svg>