<svg width="66" height="66" fill="none" xmlns="http://www.w3.org/2000/svg"><g fill-rule="evenodd" clip-rule="evenodd" fill="#86ADEF"><path d="M34.275 22h4.654c.591 0 1.071.485 1.071 1.083v10.834c0 .598-.48 1.083-1.071 1.083H26.07A1.078 1.078 0 0125 33.917v-2.539c0-.287.113-.562.314-.766l8.204-8.295c.2-.203.473-.317.757-.317zm-7.132 10.833h10.714v-8.666h-3.138l-7.576 7.66v1.006zM33 57.5a4.5 4.5 0 119 0 4.5 4.5 0 01-9 0zm2.25 0a2.25 2.25 0 104.5 0 2.25 2.25 0 00-4.5 0zm11.75 0a4.5 4.5 0 119 0 4.5 4.5 0 01-9 0zm2.25 0a2.25 2.25 0 104.5 0 2.25 2.25 0 00-4.5 0zM21 57.5a4.5 4.5 0 119 0 4.5 4.5 0 01-9 0zm2.25 0a2.25 2.25 0 104.5 0 2.25 2.25 0 00-4.5 0z"/><path d="M64.9 46.2a1.1 1.1 0 001.1-1.1v-11a1.1 1.1 0 00-1.1-1.1H44V18.7a1.1 1.1 0 00-1.1-1.1h-11c-.292 0-.571.116-.778.322L28.6 20.445 8.478.322A1.1 1.1 0 007.7 0H1.1A1.1 1.1 0 000 1.1v37.4c0 .368.184.711.49.915l9.9 6.6a1.1 1.1 0 001.677-.648l3.3-13.2 1.1-4.4a1.1 1.1 0 00-2.134-.535l-.89 3.568H5.681l2.775-18.059L22.38 26.664l-2.259 2.258a1.1 1.1 0 00-.322.778V44h-1.1a1.1 1.1 0 00-1.1 1.1v5.588A7.7 7.7 0 0018.7 66h39.6a7.7 7.7 0 001.1-15.312V46.2h5.5zm-1.1-11V44H44v-8.8h19.8zM2.2 37.91l8.112 5.408L12.89 33H2.2v4.911zM8.478 9.65a1.1 1.1 0 00-1.87.61L3.456 30.8H2.2V2.2h5.045l19.8 19.8-3.11 3.108L8.479 9.65zm16.236 17.79L22 30.156V44h19.8V19.8h-9.444l-2.978 2.978-4.664 4.663zM63.8 58.3a5.507 5.507 0 01-5.5 5.5H18.7a5.5 5.5 0 010-11h39.6a5.507 5.507 0 015.5 5.5zm-44-7.7h37.4v-4.4H19.8v4.4z"/></g></svg>