<svg width="42" height="70" fill="none" xmlns="http://www.w3.org/2000/svg"><g fill-rule="evenodd" clip-rule="evenodd" fill="#86ADEF"><path d="M41.568 1.353a1.13 1.13 0 00-.965-.204L25.175 4.981A6.416 6.416 0 0018.916 0c-3.153 0-5.78 2.273-6.314 5.256h-4.67C3.558 5.256 0 8.671 0 12.867a1.12 1.12 0 001.124 1.117c.621 0 1.125-.5 1.125-1.117 0-2.965 2.55-5.377 5.683-5.377h4.57v2.234h-4.57c-.621 0-1.124.5-1.124 1.117a1.12 1.12 0 001.124 1.117h4.57v5.991a15.39 15.39 0 00-6.286 5.24 15.161 15.161 0 00-2.726 8.698v36.996A1.12 1.12 0 004.614 70h28.604c.621 0 1.125-.5 1.125-1.117V31.887c0-3.127-.943-6.134-2.726-8.698a15.391 15.391 0 00-6.286-5.24v-4.016l15.272 3.793a1.128 1.128 0 00.965-.203c.273-.212.432-.537.432-.88V2.233c0-.344-.16-.669-.432-.88zm-22.651.881c2.297 0 4.166 1.857 4.166 4.14v11.195H14.75V6.373c0-2.282 1.87-4.139 4.166-4.139zM5.738 60.818v6.948h26.355v-6.948H5.74zM32.045 30.77H13.61c-.62 0-1.124.5-1.124 1.117a1.12 1.12 0 001.124 1.117h18.485v25.58H5.74v-25.58h3.373c.62 0 1.124-.5 1.124-1.117a1.12 1.12 0 00-1.124-1.117H5.787c.41-4.859 3.478-9.07 8.065-10.967h10.129c4.586 1.897 7.654 6.108 8.064 10.967zm-6.714-19.14l14.42 3.582V3.664l-14.42 3.581v4.385z"/><path d="M18.5 56c-2.376 0-4.452-.828-6.003-2.395-1.605-1.62-2.515-3.927-2.497-6.327.035-4.45 3.183-8.427 3.316-8.594a1.105 1.105 0 011.766.054l.223.316c.542-1.183 1.344-2.626 2.401-3.718a1.105 1.105 0 011.588 0c1.057 1.092 1.86 2.535 2.4 3.718l.223-.316a1.106 1.106 0 011.766-.054c.134.167 3.282 4.144 3.317 8.594.018 2.4-.892 4.706-2.497 6.328C22.953 55.172 20.876 56 18.5 56zm-4.043-14.307l-.263-.373c-.827 1.353-1.963 3.633-1.981 5.975-.014 1.813.662 3.544 1.854 4.749 1.127 1.138 2.66 1.739 4.433 1.739 1.773 0 3.306-.602 4.433-1.74 1.192-1.204 1.868-2.935 1.854-4.748-.018-2.341-1.154-4.622-1.981-5.975l-.263.373c-.326.462-.475.673-.91.758a1.106 1.106 0 01-1.274-.773c-.199-.595-.835-2.356-1.859-3.822-1.024 1.466-1.66 3.227-1.858 3.822l-.026.073a1.107 1.107 0 01-.971.719c-.614.033-.867-.323-1.188-.777z"/></g></svg>