<svg width="56" height="64" fill="none" xmlns="http://www.w3.org/2000/svg"><g fill="#86ADEF"><path fill-rule="evenodd" clip-rule="evenodd" d="M53.73 50.265c-.693-4.184-3.603-7.617-7.594-8.959l-8.865-2.978V37h-2.06v1.762L28 49.666l-7.21-10.904V37h-2.061v1.328l-8.863 2.978c-3.992 1.342-6.902 4.775-7.595 8.96L0 64h56l-2.27-13.735zM9.556 61.923H2.433l.33-2.004 6.905.87-.112 1.134zM3.103 57.87l6.77.853.214-2.164-6.63-.836-.354 2.147zm23.867 4.054H11.626l.917-9.242-2.05-.207-.2 2.018-6.496-.819.507-3.065a9.303 9.303 0 016.213-7.33l7.352-2.471-3.547 8.045 12.648 7.436v5.635zm-10.016-13.93l10.016 5.89v-2.03l-7.03-10.632-2.986 6.772zm12.076 3.86l7.03-10.63 2.986 6.771-10.016 5.89v-2.032zm14.427.826l2.05-.207.201 2.019 6.496-.819-.507-3.065a9.311 9.311 0 00-6.215-7.333l-7.352-2.47 3.547 8.045-12.647 7.437v5.635h6.18v-8.308h2.061v8.308h7.103l-.917-9.242zm2.455 3.878l6.63-.836.354 2.147-6.77.853-.214-2.164zm.42 4.231l.112 1.134h7.123l-.33-2.004-6.905.87z"/><path fill-rule="evenodd" clip-rule="evenodd" d="M10.941 19.514h-1.24a3.1 3.1 0 01-2.199-.903L5 16.13l1.466-1.452 2.502 2.48c.193.19.46.3.733.3h2.251v-2.054C11.952 6.911 18.927 0 27.5 0c8.575 0 15.55 6.91 15.55 15.405v2.054h2.25c.273 0 .54-.11.732-.3l2.502-2.48L50 16.131l-2.502 2.48a3.101 3.101 0 01-2.199.902h-1.24a5.052 5.052 0 011.063 3.082c0 2.635-2.021 4.788-4.604 5.077a11.224 11.224 0 01-2.882 4.819l-4.042 4.005A5.174 5.174 0 0129.93 38h-4.857a5.174 5.174 0 01-3.665-1.504l-4.042-4.005a11.207 11.207 0 01-2.882-4.819c-2.583-.29-4.604-2.442-4.604-5.077 0-1.16.405-2.22 1.063-3.081zm25.23 11.525a9.144 9.144 0 002.732-6.536v-4.99H16.098v4.99c0 2.469.972 4.79 2.733 6.536l4.041 4.005a3.105 3.105 0 002.2.902h4.857c.832 0 1.612-.32 2.2-.902l4.041-4.005zM20.378 9.729l7.121-4.41 7.122 4.41-1.733 7.73H22.111L20.38 9.73zm20.548 15.772c1.228-.41 2.122-1.552 2.122-2.906 0-1.338-.87-2.467-2.073-2.892v4.8c0 .336-.02.668-.049.998zM14.025 15.405h3.11v-2.054h-2.934c1.003-6.388 6.576-11.297 13.3-11.297 6.723 0 12.296 4.91 13.299 11.297h-2.934v2.054h3.11v2.054h-5.964l1.952-8.702-9.463-5.86-9.464 5.86 1.952 8.702h-5.964v-2.054zm0 9.098v-4.8c-1.203.425-2.073 1.554-2.073 2.892 0 1.354.894 2.495 2.122 2.907-.029-.33-.049-.663-.049-1z"/><path d="M24 13h8v2h-8zm10 32h2v2h-2zm-3 13h2v2h-2zm-6-18h6v2h-6z"/></g></svg>