<svg width="67" height="67" fill="none" xmlns="http://www.w3.org/2000/svg"><g fill="#86ADEF"><path fill-rule="evenodd" clip-rule="evenodd" d="M28.999 39.501c0-6.341 5.159-11.5 11.5-11.5s11.5 5.159 11.5 11.5-5.159 11.5-11.5 11.5-11.5-5.159-11.5-11.5zm2.614 0c0 4.9 3.986 8.886 8.886 8.886 4.9 0 8.886-3.986 8.886-8.886 0-4.9-3.986-8.886-8.886-8.886-4.9 0-8.886 3.986-8.886 8.886z"/><path fill-rule="evenodd" clip-rule="evenodd" d="M65.719 58.54l-3.537-3.536a1.29 1.29 0 00-1.823 1.823l3.537 3.537c.339.339.525.789.525 1.268s-.186.93-.525 1.268c-.7.699-1.837.699-2.536 0l-9.892-9.893c3.81-3.075 6.25-7.78 6.25-13.044 0-5.699-2.86-10.742-7.219-13.77v-5.638c0-.712-.577-1.289-1.289-1.289h-3.256a20.766 20.766 0 00-2.04-4.921l2.303-2.305a1.29 1.29 0 000-1.823l-5.934-5.934a1.289 1.289 0 00-1.823 0l-2.304 2.304a20.762 20.762 0 00-4.922-2.04V1.29c0-.712-.577-1.289-1.289-1.289h-8.393a1.29 1.29 0 00-1.288 1.29V4.54a20.773 20.773 0 00-4.93 2.038l-2.296-2.295a1.29 1.29 0 00-1.823 0l-5.934 5.935a1.289 1.289 0 000 1.822l2.289 2.29a20.753 20.753 0 00-2.05 4.936H2.288a1.29 1.29 0 00-1.289 1.29v8.392a1.29 1.29 0 001.29 1.289h3.224a20.743 20.743 0 002.048 4.946l-2.28 2.28a1.29 1.29 0 000 1.823l5.934 5.934c.503.504 1.32.504 1.823 0l2.28-2.28a20.748 20.748 0 004.946 2.048v3.225c0 .712.576 1.29 1.288 1.29h5.639c3.029 4.359 8.07 7.218 13.77 7.218a16.66 16.66 0 008.345-2.23l10.231 10.232a4.357 4.357 0 003.09 1.278 4.36 4.36 0 003.092-1.278 4.343 4.343 0 001.28-3.091 4.342 4.342 0 00-1.28-3.091zM22.842 46.925v-2.949c0-.607-.423-1.132-1.016-1.26a18.214 18.214 0 01-6.007-2.486 1.289 1.289 0 00-1.608.173l-2.084 2.084-4.112-4.112L10.1 36.29a1.29 1.29 0 00.172-1.609 18.211 18.211 0 01-2.486-6.006 1.289 1.289 0 00-1.26-1.016H3.577v-5.815h2.955a1.29 1.29 0 001.26-1.014 18.212 18.212 0 012.49-5.998 1.29 1.29 0 00-.173-1.61L8.015 11.13l4.112-4.111 2.098 2.098a1.29 1.29 0 001.608.174 18.224 18.224 0 015.993-2.477 1.289 1.289 0 001.016-1.26V2.579h5.814v2.98c0 .605.422 1.13 1.015 1.259 2.132.465 4.146 1.3 5.983 2.48.51.329 1.18.257 1.609-.172l2.108-2.108 4.112 4.111-2.109 2.108a1.289 1.289 0 00-.173 1.609 18.21 18.21 0 012.482 5.984 1.29 1.29 0 001.259 1.014h2.979v2.876a16.66 16.66 0 00-6.96-1.515c-.553 0-1.1.028-1.64.08a13.575 13.575 0 00-4.02-8.281 13.59 13.59 0 00-9.564-3.905c-7.534 0-13.664 6.13-13.664 13.665 0 7.043 5.355 12.857 12.208 13.587a16.666 16.666 0 001.438 8.574h-2.877zM21 24.764a4.742 4.742 0 004.736 4.736 4.741 4.741 0 004.736-4.736 4.741 4.741 0 00-4.736-4.736A4.742 4.742 0 0021 24.764zm4.736-7.314c-4.033 0-7.314 3.28-7.314 7.314 0 4.033 3.28 7.314 7.314 7.314.15 0 .3-.006.448-.015a16.65 16.65 0 00-1.46 3.739c-5.64-.513-10.074-5.266-10.074-11.038 0-6.113 4.973-11.086 11.086-11.086 5.718 0 10.51 4.444 11.035 10.057-1.314.34-2.566.835-3.735 1.465.008-.144.014-.29.014-.436 0-4.033-3.281-7.314-7.314-7.314zm15.224 8.333c-7.819 0-14.18 6.36-14.18 14.18 0 7.819 6.361 14.18 14.18 14.18 7.818 0 14.18-6.361 14.18-14.18 0-7.82-6.362-14.18-14.18-14.18z"/><path d="M41.272 34.001a1.273 1.273 0 100 2.546 3.185 3.185 0 013.181 3.181 1.273 1.273 0 002.546 0 5.733 5.733 0 00-5.727-5.727zm14.727 18.501a1.502 1.502 0 001.5 1.499c.394 0 .782-.16 1.06-.44a1.51 1.51 0 00.44-1.06c0-.395-.16-.782-.44-1.06A1.512 1.512 0 0057.5 51a1.503 1.503 0 00-1.5 1.5z"/></g></svg>