<svg width="73" height="66" fill="none" xmlns="http://www.w3.org/2000/svg"><g fill="#86ADEF"><path d="M73 32.997a2.59 2.59 0 00-.874-1.935V19.529A2.134 2.134 0 0073 17.81c0-.887-.55-1.666-1.374-1.995a1.1 1.1 0 00-.583-.166H47.458V4.62a2.495 2.495 0 001.157-2.099c0-1.045-.655-1.963-1.632-2.34A1.103 1.103 0 0046.375 0h-32.22c-.597 0-1.082.47-1.082 1.051s.485 1.052 1.083 1.052h31.913c.017.005.033.01.05.013a.42.42 0 01.33.405.42.42 0 01-.33.406 1.058 1.058 0 00-.828 1.021v16.83c0 .392.224.751.58.932.357.181.578.535.578.923 0 .387-.221.741-.577.922-.357.182-.58.54-.58.931v17.027c0 .39.223.75.58.931.356.181.577.534.577.923 0 .388-.221.741-.577.922-.357.181-.58.54-.58.932v16.83c0 .485.342.908.828 1.022a.42.42 0 01.329.405c0 .193-.136.36-.33.405a1.25 1.25 0 00-.05.014H2.598a.426.426 0 01-.431-.419c0-.23.193-.418.432-.418.598 0 1.084-.471 1.084-1.052V45.366c0-.46-.31-.867-.762-1.004a1.04 1.04 0 01-.754-.995c0-.459.303-.859.754-.994.452-.137.762-.544.762-1.005V24.632c0-.46-.31-.868-.762-1.005a1.04 1.04 0 01-.754-.994c0-.46.303-.86.754-.995.452-.137.762-.544.762-1.004V3.99c0-.58-.487-1.051-1.085-1.051a.426.426 0 01-.431-.419c0-.23.193-.418.432-.418h5.892c.598 0 1.083-.47 1.083-1.052C9.574.471 9.089 0 8.49 0H2.598C1.165 0 0 1.13 0 2.521c0 1.016.622 1.893 1.516 2.292v15.155A3.108 3.108 0 000 22.633c0 1.108.585 2.1 1.516 2.664v15.405A3.108 3.108 0 000 43.367c0 1.108.585 2.1 1.516 2.665v15.154C.622 61.585 0 62.462 0 63.48 0 64.869 1.165 66 2.6 66h58.142c.599 0 1.084-.47 1.084-1.051s-.485-1.052-1.084-1.052H48.58c.023-.137.037-.276.037-.418 0-.866-.45-1.643-1.158-2.1V49.918h4.434c.598 0 1.083-.47 1.083-1.051 0-.58-.485-1.051-1.083-1.051h-4.434v-2.039a3.098 3.098 0 001.158-2.409c0-.943-.431-1.818-1.158-2.408v-7.123h18.866c.598 0 1.083-.47 1.083-1.051 0-.582-.485-1.052-1.083-1.052H47.458v-6.691a3.098 3.098 0 001.158-2.41c0-.943-.431-1.818-1.158-2.408v-2.47h23.319a.06.06 0 01.01.002c.014.003.046.019.046.055 0 .037-.032.053-.045.056a1.059 1.059 0 00-.828 1.022v12.708c0 .39.223.75.58.931a.53.53 0 01.293.47.526.526 0 01-.291.467c-.358.18-.582.54-.582.932v12.856c0 .392.224.751.582.932a.55.55 0 01.211.19c.054.084.08.178.08.278a.53.53 0 01-.294.47c-.356.18-.58.54-.58.93v12.708c0 .486.343.908.83 1.023a.056.056 0 01.03.018c.014.017.014.03.014.036 0 .038-.032.053-.045.056-.004 0-.007.002-.011.003h-4.453c-.598 0-1.083.471-1.083 1.052 0 .58.485 1.051 1.083 1.051h4.719c.215 0 .415-.06.583-.165A2.154 2.154 0 0073 63.838a2.134 2.134 0 00-.874-1.715V50.588a2.575 2.575 0 000-3.87V34.934A2.59 2.59 0 0073 32.998z"/><path d="M68 49c0-.552-.48-1-1.07-1h-9.86c-.59 0-1.07.448-1.07 1s.48 1 1.07 1h9.86c.59 0 1.07-.448 1.07-1zM42 22.164c0-.59-.488-1.07-1.09-1.07h-6.618A15.42 15.42 0 0025 18a15.384 15.384 0 00-9.281 3.094h-6.63A1.08 1.08 0 008 22.164c0 .591.488 1.07 1.09 1.07h4.324c-2.3 2.626-3.691 6.04-3.691 9.766 0 3.727 1.392 7.14 3.692 9.767H9.09A1.08 1.08 0 008 43.837c0 .59.488 1.07 1.09 1.07h6.63A15.38 15.38 0 0025 48c3.466 0 6.706-1.139 9.303-3.093h6.607a1.08 1.08 0 001.09-1.07 1.08 1.08 0 00-1.09-1.07h-4.303a14.868 14.868 0 003.213-6.11 1.069 1.069 0 00-.792-1.298 1.093 1.093 0 00-1.322.777 12.783 12.783 0 01-4.387 6.805c-.065.041-.125.09-.18.143A13.239 13.239 0 0125 45.86c-7.221 0-13.097-5.769-13.097-12.86 0-7.09 5.876-12.86 13.098-12.86 3.265 0 6.392 1.187 8.807 3.34 2.397 2.14 3.898 5.054 4.223 8.204a1.084 1.084 0 001.195.956 1.075 1.075 0 00.974-1.172 14.808 14.808 0 00-3.607-8.234h4.318a1.08 1.08 0 001.09-1.07z"/><path fill-rule="evenodd" clip-rule="evenodd" d="M15.426 31.118c-.385 0-.759.154-1.026.423a1.363 1.363 0 00-.399 1.01c.127 3.363 1.964 6.442 4.912 8.238a1.464 1.464 0 001.099.17c.374-.09.7-.327.892-.65l2.75-4.611a3.864 3.864 0 001.69 0l2.75 4.611a1.431 1.431 0 001.234.691c.265 0 .53-.072.758-.21 2.949-1.796 4.786-4.876 4.913-8.238a1.365 1.365 0 00-.399-1.011 1.456 1.456 0 00-1.026-.423h-5.5a3.612 3.612 0 00-.844-1.416l2.75-4.613c.193-.323.241-.713.135-1.071a1.402 1.402 0 00-.705-.84A10.805 10.805 0 0024.5 22c-1.71 0-3.409.408-4.911 1.178a1.402 1.402 0 00-.705.841c-.107.358-.057.749.135 1.071l2.75 4.613a3.616 3.616 0 00-.843 1.416h-5.5v-.001zm4.001 7.45c-1.753-1.303-2.898-3.224-3.185-5.342h4.681a3.65 3.65 0 00.846 1.417l-2.342 3.926zm4.292-5.086c-1.737-.974-.197-3.577 1.562-2.62 1.75.952.18 3.599-1.562 2.62zm5.853 5.088l-2.342-3.926c.387-.402.68-.892.846-1.418h4.682c-.287 2.118-1.433 4.04-3.186 5.344zm-1.886-13.85a8.602 8.602 0 00-6.373 0l2.34 3.925a3.897 3.897 0 011.692 0l2.34-3.925z"/></g></svg>