<svg width="78" height="67" fill="none" xmlns="http://www.w3.org/2000/svg"><g fill="#86ADEF"><path fill-rule="evenodd" clip-rule="evenodd" d="M24.683 20c1.142 0 2.158.8 2.412 1.867l1.778 6.666c.254.8.127 1.6-.38 2.4C28.11 31.6 27.348 32 26.586 32H15.54C14.143 32 13 30.8 13 29.333v-6.666C13 21.2 14.143 20 15.54 20h9.143zm-9.143 2.667v6.666h11.047l-1.904-6.666H15.54z"/><path d="M18.5 59c-.9 0-1.5.6-1.5 1.5s.6 1.5 1.5 1.5 1.5-.6 1.5-1.5-.6-1.5-1.5-1.5zm6 0c-.9 0-1.5.6-1.5 1.5s.6 1.5 1.5 1.5 1.5-.6 1.5-1.5-.6-1.5-1.5-1.5zm7 0c-.9 0-1.5.6-1.5 1.5s.6 1.5 1.5 1.5 1.5-.6 1.5-1.5-.6-1.5-1.5-1.5zm6 0c-.9 0-1.5.6-1.5 1.5s.6 1.5 1.5 1.5 1.5-.6 1.5-1.5-.6-1.5-1.5-1.5zm7 0c-.9 0-1.5.6-1.5 1.5s.6 1.5 1.5 1.5 1.5-.6 1.5-1.5-.6-1.5-1.5-1.5z"/><path fill-rule="evenodd" clip-rule="evenodd" d="M54.141 54.05H55.9c3.64 0 6.5 2.849 6.5 6.475C62.4 64.15 59.54 67 55.9 67H6.5C2.86 67 0 64.151 0 60.525c0-3.626 2.86-6.475 6.5-6.475V17.789c0-2.85 2.34-5.18 5.2-5.18h3.9v-2.59c0-2.85 2.34-5.18 5.2-5.18 2.86 0 5.2 2.33 5.2 5.18v2.59h3.38c2.47 0 4.55 1.683 5.07 4.014l2.619 11.675L62.27 1.73c1.95-2.072 5.2-2.33 7.41-.518 1.17.907 1.95 2.332 2.08 3.886a5.318 5.318 0 01-.266 2.186c.004.047.006.095.006.145v16.946c3.677.621 6.5 3.827 6.5 7.66 0 1.683-.52 3.366-1.56 4.661-.26.389-.65.518-1.04.518-.26 0-.52-.129-.779-.258h-.001c-.52-.39-.65-1.296-.26-1.814.65-.906 1.04-1.942 1.04-3.108 0-2.849-2.34-5.18-5.2-5.18-2.86 0-5.2 2.331-5.2 5.18 0 1.166.39 2.202 1.04 3.108.39.518.26 1.425-.26 1.813-.52.389-1.43.26-1.82-.259-1.04-1.295-1.56-2.978-1.56-4.662 0-3.832 2.823-7.038 6.5-7.66v-13.65l-25.565 26.49H55.64c1.17 0 2.08.518 2.73 1.554.52.907.65 2.072.13 2.979L54.141 54.05zm-42.41 10.36h38.938a6.474 6.474 0 01-1.269-3.885c0-1.469.47-2.81 1.27-3.885H11.73A6.475 6.475 0 0113 60.525c0 1.468-.47 2.809-1.27 3.885zM64.22 3.673c1.04-1.036 2.73-1.166 3.9-.26.65.39 1.04 1.166 1.04 1.943 0 .777-.26 1.554-.78 2.072l-28.6 29.786h-.65l-.931-3.879-.472-2.105L64.22 3.673zM20.8 7.429c-1.43 0-2.6 1.165-2.6 2.59v2.59h5.2v-2.59c0-1.425-1.17-2.59-2.6-2.59zM9.1 17.789c0-1.425 1.17-2.59 2.6-2.59h17.55c1.3 0 2.34.906 2.6 2.072l4.55 19.943H9.1V17.79zm28.6 32.375H9.1v3.886h41.86c.26 0 .39-.13.52-.26l4.68-13.079c.13-.259 0-.518 0-.518 0-.13-.26-.259-.52-.259H9.1v2.46h20.8c.78 0 1.3.519 1.3 1.296s-.52 1.294-1.3 1.294H9.1v2.59h28.6c.78 0 1.3.519 1.3 1.296s-.52 1.294-1.3 1.294zM2.6 60.524c0-2.2 1.69-3.884 3.9-3.884s3.9 1.683 3.9 3.885c0 2.201-1.69 3.885-3.9 3.885s-3.9-1.684-3.9-3.885zm49.4 0c0 2.202 1.69 3.886 3.9 3.886s3.9-1.684 3.9-3.885c0-2.202-1.69-3.885-3.9-3.885S52 58.323 52 60.525z"/><path fill-rule="evenodd" clip-rule="evenodd" d="M76.689 40.6l1.264 5.136c.126.385 0 .899-.38 1.155l-3.792 3.852c-.253.129-.505.257-.885.257h-.252l-6.321-1.284c-.506-.128-.885-.513-1.011-.899l-1.265-5.135c-.126-.386 0-.899.38-1.156l5.056-5.136c.38-.385 1.011-.513 1.517-.256l5.056 2.568c.38.128.633.513.633.898zm-9.102 6.676l4.93 1.028 2.781-2.825-1.011-3.852-3.666-1.926-3.919 3.98.885 3.596z"/></g></svg>