<svg width="16" height="14" fill="none" xmlns="http://www.w3.org/2000/svg"><path fill-rule="evenodd" clip-rule="evenodd" d="M3.97 8.096L.282 6.713a.438.438 0 01-.005-.817L15.408.03a.435.435 0 01.583.496l-2.716 13.126a.434.434 0 01-.68.264l-3.707-2.704a.61.61 0 00-.747.02l-2.055 1.684a.433.433 0 01-.69-.208L3.97 8.096zM12.8 3.02L5.356 7.378a.697.697 0 00-.327.801l.805 2.688c.057.19.348.171.375-.026l.21-1.474c.04-.277.178-.533.394-.724l6.144-5.428c.115-.101-.023-.273-.157-.195z" fill="#fff"/></svg>