<svg width="19" height="19" fill="none" xmlns="http://www.w3.org/2000/svg"><path d="M17.079 2.126C15.499.653 12.945-.06 9.487.004 6 .069 3.668.651 2.15 1.835.683 2.98 0 4.655 0 7.108v2.503c0 2.895 1.632 6.077 4.75 6.56.36.055.7-.178.758-.52a.632.632 0 00-.546-.72c-2.365-.366-3.641-3.014-3.641-5.32V7.108c0-3.516 1.37-5.721 8.192-5.849 3.092-.058 5.324.536 6.641 1.763 1.026.957 1.525 2.293 1.525 4.086v2.503c0 3.79-1.789 5.461-6.378 5.953H8.047a.678.678 0 00-.467.184l-2.293 2.18a.606.606 0 000 .888.676.676 0 00.467.184.676.676 0 00.467-.184l2.1-1.996h3.017a.683.683 0 00.073-.004c2.626-.277 4.425-.927 5.66-2.045C18.368 13.595 19 11.907 19 9.611V7.108c0-2.118-.646-3.794-1.921-4.982z" fill="#fff"/><path d="M9.749 3.93c1.13 0 2.192.42 2.99 1.182a3.92 3.92 0 011.24 2.855c0 .37.314.67.7.67.388 0 .702-.3.702-.67 0-1.436-.586-2.786-1.65-3.801A5.732 5.732 0 009.75 2.59c-.388 0-.701.3-.701.67 0 .369.314.668.7.668z" fill="#fff"/><path d="M9.704 6.434c.91 0 1.65.707 1.65 1.576 0 .346.294.626.657.626.362 0 .656-.28.656-.626 0-1.56-1.33-2.828-2.963-2.828-.363 0-.656.28-.656.626s.293.626.656.626zm-2.914.779a.604.604 0 00-.17.863.67.67 0 00.904.162c.233-.152.78-.509.741-1.222-.024-.426-.427-1.035-.761-1.47-.488-.639-.91-1.023-1.248-1.142a1.506 1.506 0 00-.985-.007c-.698.225-1.205.63-1.466 1.174-.254.529-.248 1.136.017 1.757a11.586 11.586 0 002.606 3.814c1.114 1.05 2.457 1.886 3.99 2.483.332.129.66.193.976.193.303 0 .594-.06.865-.178.57-.249.994-.732 1.23-1.4a1.32 1.32 0 00-.007-.937c-.126-.326-.528-.727-1.196-1.193-.457-.319-1.095-.704-1.543-.727-.745-.036-1.118.485-1.278.708a.604.604 0 00.17.863.67.67 0 00.904-.162.984.984 0 01.134-.164c.366.112 1.407.842 1.594 1.122.005.018.006.045-.012.095-.082.232-.242.537-.538.666-.277.122-.593.047-.808-.036-1.374-.535-2.574-1.28-3.561-2.211A10.344 10.344 0 015.027 6.86c-.088-.206-.166-.507-.039-.772.136-.282.455-.435.698-.513a.185.185 0 01.1-.011c.293.179 1.058 1.172 1.175 1.52a.975.975 0 01-.171.129z" fill="#fff"/></svg>