<svg width="18" height="18" fill="none" xmlns="http://www.w3.org/2000/svg"><path fill-rule="evenodd" clip-rule="evenodd" d="M18 8.768c0 4.843-3.956 8.768-8.836 8.768a8.851 8.851 0 01-4.272-1.09L0 18l1.595-4.704A8.676 8.676 0 01.327 8.768C.327 3.926 4.283 0 9.164 0 14.044 0 18 3.926 18 8.768zM9.164 1.396c-4.097 0-7.43 3.307-7.43 7.372A7.29 7.29 0 003.15 13.09l-.929 2.738 2.855-.907a7.424 7.424 0 004.088 1.219c4.096 0 7.429-3.307 7.429-7.371 0-4.065-3.333-7.373-7.43-7.373zm4.164 9.198c.151.072.254.122.298.194.054.09.054.52-.126 1.022-.182.501-1.066.985-1.463 1.021-.068.006-.124.02-.182.034-.28.067-.592.142-2.417-.571-2.035-.795-3.376-2.77-3.654-3.177l-.046-.068c-.11-.145-.885-1.166-.885-2.222 0-.99.49-1.508.716-1.747l.042-.046a.8.8 0 01.578-.269c.075 0 .15.005.221.01a3.085 3.085 0 00.242.006c.122-.008.28-.018.44.36l.23.556c.189.456.4.967.437 1.04.055.108.091.233.018.377l-.029.059a1.212 1.212 0 01-.187.3 8.56 8.56 0 00-.11.13c-.075.09-.15.181-.215.246-.108.107-.221.223-.095.438s.561.919 1.205 1.488a5.6 5.6 0 001.599 1.003c.06.026.107.046.143.064.216.107.343.09.469-.054.127-.144.542-.628.686-.843.144-.215.289-.179.488-.107.198.071 1.263.591 1.48.699l.117.057z" fill="#fff"/></svg>