<svg width="16" height="16" fill="none" xmlns="http://www.w3.org/2000/svg"><path d="M15.641 12.655l-2.47-2.477c-.493-.49-1.308-.476-1.817.035l-1.245 1.247-.246-.137c-.786-.436-1.862-1.035-2.994-2.17-1.136-1.138-1.733-2.218-2.17-3.007-.046-.083-.09-.164-.134-.24l.836-.837.41-.412c.51-.511.524-1.328.033-1.82L3.374.358c-.491-.492-1.307-.477-1.817.035l-.696.702.019.019a4.039 4.039 0 00-.574 1.014 4.275 4.275 0 00-.256 1.03c-.326 2.711.91 5.189 4.265 8.55 4.637 4.648 8.373 4.297 8.535 4.28a4.164 4.164 0 001.03-.26c.366-.143.71-.339 1.008-.572l.015.013.705-.692c.51-.511.524-1.328.033-1.822z" fill="#86AFEF"/></svg>