<svg width="19" height="19" fill="none" xmlns="http://www.w3.org/2000/svg"><path d="M18.574 15.028l-2.934-2.941c-.585-.584-1.553-.566-2.157.04l-1.479 1.482-.291-.163c-.934-.518-2.212-1.229-3.556-2.577-1.349-1.352-2.058-2.634-2.577-3.57-.055-.1-.107-.195-.159-.286l.992-.993.488-.49c.606-.607.622-1.577.04-2.162L4.005.427c-.582-.585-1.55-.567-2.155.04l-.827.834.023.023a4.796 4.796 0 00-.682 1.204c-.159.42-.258.82-.303 1.222-.387 3.22 1.08 6.162 5.064 10.154 5.506 5.519 9.944 5.102 10.135 5.081a4.95 4.95 0 001.223-.307 4.768 4.768 0 001.197-.68l.018.016.838-.823c.605-.607.622-1.577.04-2.163z" fill="#fff"/></svg>