<svg width="16" height="12" fill="none" xmlns="http://www.w3.org/2000/svg"><path fill-rule="evenodd" clip-rule="evenodd" d="M14.953.252L8 6.336 1.047.252C1.332.096 1.653 0 2 0h12c.347 0 .668.096.953.252zm.79 10.71c.158-.286.257-.611.257-.962V2a1.98 1.98 0 00-.312-1.062L10.691 5.31l5.052 5.652zM9.94 5.968L8.33 7.377a.5.5 0 01-.658 0l-1.61-1.41-5.116 5.725c.307.193.666.308 1.055.308h12c.389 0 .748-.115 1.055-.308L9.939 5.968zM0 2c0-.392.117-.754.312-1.062l4.996 4.37-5.051 5.654A1.976 1.976 0 010 10V2z" fill="#87B0EE"/></svg>