<svg width="21" height="15" fill="none" xmlns="http://www.w3.org/2000/svg"><path fill-rule="evenodd" clip-rule="evenodd" d="M20 .318L10.5 8 1 .318A2.862 2.862 0 012.302 0h16.396c.473 0 .912.121 1.302.318zM20.662 14c.208-.371.338-.793.338-1.248V2.378c0-.508-.154-.978-.41-1.378L14 6.67 20.662 14zM13.11 7l-2.168 1.87a.679.679 0 01-.886 0L7.889 7 1 14.592A2.69 2.69 0 002.42 15h16.16a2.69 2.69 0 001.42-.408L13.11 7zM0 2.378C0 1.87.155 1.4.41 1L7 6.669.339 14A2.53 2.53 0 010 12.752V2.378z" fill="#fff"/></svg>