<svg width="58" height="28" fill="none" xmlns="http://www.w3.org/2000/svg"><g fill="#86ADEF"><path fill-rule="evenodd" clip-rule="evenodd" d="M57.713 14.045l-6.737-7.72a1.156 1.156 0 00-.87-.396h-5.61V1.16A1.16 1.16 0 0043.337 0H19.442a1.16 1.16 0 00-1.157 1.161v1.567H7.157A1.16 1.16 0 006 3.89a1.16 1.16 0 001.157 1.16h11.128v15.054h-6.699a1.16 1.16 0 00-1.156 1.162 1.16 1.16 0 001.156 1.16h6.699v1.181a1.16 1.16 0 001.157 1.161h2.415c.509 1.86 2.207 3.232 4.22 3.232s3.712-1.371 4.22-3.232h15.439c.509 1.86 2.207 3.232 4.22 3.232s3.712-1.371 4.22-3.232h2.667A1.16 1.16 0 0058 23.607V14.81c0-.281-.102-.553-.287-.765zM26.077 25.677a2.069 2.069 0 01-2.062-2.07c0-1.142.925-2.07 2.062-2.07 1.137 0 2.063.928 2.063 2.07s-.925 2.07-2.063 2.07zm0-6.463c2.013 0 3.712 1.372 4.22 3.232h11.884V2.322H20.599v20.124h1.258c.508-1.86 2.207-3.232 4.22-3.232zm23.88 6.463a2.069 2.069 0 01-2.063-2.07c0-1.142.925-2.07 2.062-2.07 1.137 0 2.063.928 2.063 2.07s-.925 2.07-2.063 2.07zm4.22-3.231h1.509v-7.2L49.58 8.252h-5.086v14.195h1.24c.51-1.86 2.208-3.232 4.221-3.232s3.712 1.372 4.22 3.232z"/><path d="M7.816 20h-.632C6.53 20 6 20.672 6 21.5S6.53 23 7.184 23h.632C8.47 23 9 22.328 9 21.5S8.47 20 7.816 20zm5.084-9H1.1c-.607 0-1.1.56-1.1 1.25s.493 1.25 1.1 1.25h11.8c.607 0 1.1-.56 1.1-1.25S13.507 11 12.9 11z"/></g></svg>