<svg width="37" height="48" fill="none" xmlns="http://www.w3.org/2000/svg"><path fill-rule="evenodd" clip-rule="evenodd" d="M8.67 0h25.292C35.637 0 37 1.38 37 3.078v36.138c0 1.697-1.363 3.078-3.038 3.078h-2.596v3.51c0 1.21-.972 2.196-2.168 2.196H2.168C.973 48 0 47.015 0 45.804V7.903c0-1.211.973-2.197 2.168-2.197h3.465V3.078C5.633 1.38 6.995 0 8.67 0zM2.189 45.784h26.99V17.618h-7.094c-1.366 0-2.476-1.125-2.476-2.508V7.923H2.188v37.86zM21.796 9.49l5.836 5.912h-5.548a.29.29 0 01-.288-.292V9.49zm9.57 30.587h2.596c.469 0 .85-.386.85-.861V3.078a.857.857 0 00-.85-.861H8.67a.857.857 0 00-.85.86v2.63h12.882c.301 0 .574.123.772.323h.001l9.571 9.697c.203.205.312.478.319.758l.002.025v23.567z" fill="#86ADEF"/></svg>