<svg width="37" height="55" fill="none" xmlns="http://www.w3.org/2000/svg"><g fill="#86ADEF"><path fill-rule="evenodd" clip-rule="evenodd" d="M36.998 10.758v-.025l-.001-.01a1.067 1.067 0 00-.018-.137 1.102 1.102 0 00-.038-.135l-.012-.032a1.13 1.13 0 00-.054-.122l-.002-.004-.002-.002a1.056 1.056 0 00-.076-.119l-.015-.02-.006-.008a1.082 1.082 0 00-.095-.108L26.745.315a1.097 1.097 0 00-.11-.093l-.01-.008a1.042 1.042 0 00-.14-.088L26.48.124l-.005-.002a1.158 1.158 0 00-.293-.101 1.19 1.19 0 00-.14-.018h-.019l-.018-.001L25.991 0H1.098C.49 0 0 .48 0 1.074v45.98c0 .593.491 1.073 1.098 1.073h16.527v5.799c0 .39.217.75.566.94.35.189.777.178 1.115-.03l4.181-2.567 4.18 2.567a1.117 1.117 0 001.116.03c.35-.19.566-.55.566-.94v-5.799h6.553c.607 0 1.098-.48 1.098-1.074v-36.28l-.002-.014zm-9.931-7.09l6.185 6.053h-6.185V3.668zm-10.19 28.834c.003.137.129.472.206.677l.001.003c.163.435.347.927.347 1.473 0 .547-.184 1.04-.348 1.476-.077.206-.202.54-.205.677.086.104.383.289.565.401.391.242.835.516 1.156.945.325.433.457.934.573 1.375v.002c.052.193.134.504.204.621.04.008.12.02.272.02.123 0 .26-.007.404-.014h.008a9.2 9.2 0 01.509-.017c.395 0 .714.044 1.004.138.503.164.906.48 1.262.76l.005.005c.194.153.518.408.647.43.13-.022.453-.277.648-.43l.001-.002c.357-.28.76-.598 1.266-.763.29-.094.608-.138 1.003-.138.177 0 .346.009.51.016h.007c.145.008.282.015.405.015.152 0 .232-.012.271-.02.07-.118.153-.43.204-.623.116-.44.249-.942.573-1.375.322-.429.765-.703 1.157-.945l.01-.006c.182-.114.47-.293.555-.395-.003-.137-.129-.472-.206-.677v-.002c-.163-.435-.348-.928-.348-1.474 0-.547.185-1.04.348-1.476l.001-.002c.077-.206.202-.539.205-.675-.085-.102-.373-.282-.556-.395l-.01-.006c-.392-.242-.835-.516-1.156-.945-.324-.433-.457-.934-.573-1.375-.05-.194-.133-.505-.204-.623a1.369 1.369 0 00-.271-.02c-.123 0-.26.007-.405.014h-.007a9.205 9.205 0 01-.51.017c-.395 0-.714-.044-1.003-.138-.506-.165-.91-.483-1.268-.764l-.004-.004c-.197-.155-.523-.412-.648-.428-.115.016-.443.274-.64.43l-.002.002c-.357.28-.762.6-1.267.764-.29.094-.609.138-1.004.138-.176 0-.344-.008-.508-.016h-.01a8.599 8.599 0 00-.403-.014c-.152 0-.233.01-.272.019-.07.117-.152.428-.203.621v.002h-.001c-.117.442-.249.942-.573 1.375-.322.429-.765.703-1.156.945-.182.113-.48.297-.566.4zm10.277 19.482v-9.667a17.534 17.534 0 01-.342-.013 7.625 7.625 0 00-.407-.014c-.195 0-.278.017-.31.028-.13.042-.38.239-.582.398l-.002.001c-.512.404-1.15.906-2.024.906-.874 0-1.511-.502-2.024-.906l-.002-.001c-.201-.159-.452-.356-.582-.399a1.098 1.098 0 00-.31-.028c-.124 0-.261.007-.406.015-.112.005-.226.01-.343.013v9.667l3.083-1.893a1.12 1.12 0 011.168 0l3.082 1.892zm2.195-10.533v4.528h5.455v-34.11H25.97c-.606 0-1.098-.48-1.098-1.074V2.148H2.195V45.98h15.43v-4.528c-.326-.434-.463-.948-.578-1.384-.06-.23-.143-.542-.219-.643-.075-.1-.354-.273-.558-.399-.54-.334-1.212-.75-1.48-1.536-.264-.776.011-1.509.232-2.098.1-.267.214-.57.214-.736 0-.166-.114-.468-.214-.736-.221-.59-.496-1.322-.232-2.098.268-.786.94-1.202 1.48-1.536.204-.126.483-.299.558-.4.076-.1.158-.413.219-.642.158-.598.354-1.342 1.027-1.825.535-.383 1.154-.428 1.574-.428.175 0 .343.008.506.016h.009c.145.008.282.015.406.015a1.1 1.1 0 00.31-.028c.13-.042.377-.237.578-.395l.006-.005c.513-.404 1.15-.906 2.024-.906.873 0 1.51.501 2.022.904l.002.002c.202.16.454.357.584.4.032.01.115.028.31.028.124 0 .261-.007.407-.014.165-.009.337-.017.514-.017.42 0 1.04.045 1.575.428.672.483.868 1.227 1.026 1.825.06.23.143.543.219.643.075.1.354.273.558.399.54.334 1.212.75 1.48 1.536.264.776-.011 1.51-.232 2.098-.1.268-.214.57-.214.736 0 .165.114.468.214.736.221.59.496 1.322.232 2.098-.267.786-.94 1.202-1.48 1.536-.204.126-.483.299-.558.4-.076.1-.158.413-.219.642-.115.436-.251.95-.578 1.384z"/><path d="M6.075 11h13.85c.593 0 1.075-.448 1.075-1s-.482-1-1.075-1H6.075C5.481 9 5 9.448 5 10s.482 1 1.075 1zm24.844 4H7.08C6.484 15 6 15.448 6 16s.484 1 1.081 1H30.92c.597 0 1.081-.448 1.081-1s-.484-1-1.081-1zm-5.017 5H6.098C5.49 20 5 20.448 5 21s.491 1 1.098 1h19.804C26.51 22 27 21.552 27 21s-.491-1-1.098-1zM31 20c-.55 0-1 .674-1 1.5s.45 1.5 1 1.5c.551 0 1-.674 1-1.5s-.449-1.5-1-1.5z"/></g></svg>